# MagicaVoxel @ Ephtracy

# group
o 

# material
mtllib caja carton 1.mtl
usemtl palette

# normals
vn -1 0 0
vn 1 0 0
vn 0 0 1
vn 0 0 -1
vn 0 -1 0
vn 0 1 0

# texcoords
vt 0.00195313 0.5
vt 0.0253906 0.5
vt 0.103516 0.5
vt 0.138672 0.5
vt 0.146484 0.5
vt 0.150391 0.5

# verts
v -1.6 0 1.6
v -1.6 0 -1.6
v -1.6 0.2 -0.5
v -1.6 0.2 -1.4
v -1.6 0.3 -0.6
v -1.6 0.3 -0.8
v -1.6 0.3 -1
v -1.6 0.3 -1.1
v -1.6 0.3 -1.2
v -1.6 0.3 -1.3
v -1.6 0.6 -0.6
v -1.6 0.6 -0.8
v -1.6 0.6 -1
v -1.6 0.6 -1.1
v -1.6 0.6 -1.2
v -1.6 0.6 -1.3
v -1.6 0.7 -0.5
v -1.6 0.7 -1.4
v -1.6 0.9 1.6
v -1.6 0.9 -1.6
v 1.6 0 1.6
v 1.6 0 -1.6
v 1.6 0.2 -0.5
v 1.6 0.2 -1.4
v 1.6 0.3 -0.6
v 1.6 0.3 -0.8
v 1.6 0.3 -1
v 1.6 0.3 -1.1
v 1.6 0.3 -1.2
v 1.6 0.3 -1.3
v 1.6 0.6 -0.6
v 1.6 0.6 -0.8
v 1.6 0.6 -1
v 1.6 0.6 -1.1
v 1.6 0.6 -1.2
v 1.6 0.6 -1.3
v 1.6 0.7 -0.5
v 1.6 0.7 -1.4
v 1.6 0.9 1.6
v 1.6 0.9 -1.6
v -1.6 0 1.6
v -1.6 0.9 1.6
v -1.5 0.3 1.6
v -1.5 0.4 1.6
v -1.5 0.5 1.6
v -1.5 0.7 1.6
v -1.4 0.3 1.6
v -1.4 0.4 1.6
v -1.4 0.6 1.6
v -1.4 0.7 1.6
v -1.4 0.8 1.6
v -1.3 0.3 1.6
v -1.3 0.4 1.6
v -1.3 0.5 1.6
v -1.3 0.6 1.6
v -1.3 0.7 1.6
v -1.2 0.5 1.6
v -1.2 0.6 1.6
v -1.2 0.7 1.6
v -1.1 0.3 1.6
v -1.1 0.4 1.6
v -1.1 0.5 1.6
v -1.1 0.6 1.6
v -1.1 0.7 1.6
v -1 0.6 1.6
v -1 0.8 1.6
v -0.2 0.8 1.6
v -0.2 0.9 1.6
v 0.2 0.8 1.6
v 0.2 0.9 1.6
v 0.9 0.2 1.6
v 0.9 0.3 1.6
v 0.9 0.4 1.6
v 0.9 0.5 1.6
v 1 0.2 1.6
v 1 0.3 1.6
v 1.1 0.2 1.6
v 1.1 0.4 1.6
v 1.1 0.5 1.6
v 1.2 0.2 1.6
v 1.2 0.4 1.6
v 1.2 0.5 1.6
v 1.3 0.2 1.6
v 1.3 0.4 1.6
v 1.4 0.3 1.6
v 1.4 0.4 1.6
v 1.5 0.2 1.6
v 1.5 0.3 1.6
v 1.5 0.4 1.6
v 1.5 0.5 1.6
v 1.6 0 1.6
v 1.6 0.9 1.6
v -1.6 0 -1.6
v -1.6 0.9 -1.6
v -1.5 0.3 -1.6
v -1.5 0.4 -1.6
v -1.5 0.5 -1.6
v -1.5 0.7 -1.6
v -1.4 0.3 -1.6
v -1.4 0.4 -1.6
v -1.4 0.6 -1.6
v -1.4 0.7 -1.6
v -1.4 0.8 -1.6
v -1.3 0.3 -1.6
v -1.3 0.4 -1.6
v -1.3 0.5 -1.6
v -1.3 0.6 -1.6
v -1.3 0.7 -1.6
v -1.2 0.5 -1.6
v -1.2 0.6 -1.6
v -1.2 0.7 -1.6
v -1.1 0.3 -1.6
v -1.1 0.4 -1.6
v -1.1 0.5 -1.6
v -1.1 0.6 -1.6
v -1.1 0.7 -1.6
v -1 0.6 -1.6
v -1 0.8 -1.6
v -0.2 0.8 -1.6
v -0.2 0.9 -1.6
v 0.2 0.8 -1.6
v 0.2 0.9 -1.6
v 0.9 0.2 -1.6
v 0.9 0.3 -1.6
v 0.9 0.4 -1.6
v 0.9 0.5 -1.6
v 1 0.2 -1.6
v 1 0.3 -1.6
v 1.1 0.2 -1.6
v 1.1 0.4 -1.6
v 1.1 0.5 -1.6
v 1.2 0.2 -1.6
v 1.2 0.4 -1.6
v 1.2 0.5 -1.6
v 1.3 0.2 -1.6
v 1.3 0.4 -1.6
v 1.4 0.3 -1.6
v 1.4 0.4 -1.6
v 1.5 0.2 -1.6
v 1.5 0.3 -1.6
v 1.5 0.4 -1.6
v 1.5 0.5 -1.6
v 1.6 0 -1.6
v 1.6 0.9 -1.6
v -1.6 0 1.6
v 1.6 0 1.6
v -1.6 0 -1.6
v 1.6 0 -1.6
v -1.6 0.9 1.6
v -0.2 0.9 1.6
v 0.2 0.9 1.6
v 1.6 0.9 1.6
v -1.6 0.9 -1.6
v -0.2 0.9 -1.6
v 0.2 0.9 -1.6
v 1.6 0.9 -1.6

# faces
f 3/4/1 2/4/1 1/4/1
f 4/4/1 2/4/1 3/4/1
f 5/6/1 4/6/1 3/6/1
f 6/6/1 4/6/1 5/6/1
f 7/6/1 4/6/1 6/6/1
f 8/6/1 4/6/1 7/6/1
f 9/6/1 4/6/1 8/6/1
f 10/6/1 4/6/1 9/6/1
f 11/6/1 5/6/1 3/6/1
f 11/4/1 6/4/1 5/4/1
f 12/6/1 7/6/1 6/6/1
f 12/4/1 6/4/1 11/4/1
f 13/4/1 8/4/1 7/4/1
f 13/6/1 7/6/1 12/6/1
f 14/6/1 9/6/1 8/6/1
f 14/4/1 8/4/1 13/4/1
f 15/4/1 10/4/1 9/4/1
f 15/6/1 9/6/1 14/6/1
f 16/6/1 4/6/1 10/6/1
f 16/4/1 10/4/1 15/4/1
f 17/4/1 3/4/1 1/4/1
f 17/6/1 15/6/1 14/6/1
f 17/6/1 16/6/1 15/6/1
f 17/6/1 13/6/1 12/6/1
f 17/6/1 12/6/1 11/6/1
f 17/6/1 11/6/1 3/6/1
f 17/6/1 14/6/1 13/6/1
f 18/6/1 4/6/1 16/6/1
f 18/6/1 16/6/1 17/6/1
f 18/4/1 2/4/1 4/4/1
f 19/4/1 17/4/1 1/4/1
f 19/4/1 18/4/1 17/4/1
f 20/4/1 2/4/1 18/4/1
f 20/4/1 18/4/1 19/4/1
f 21/4/2 22/4/2 23/4/2
f 23/4/2 22/4/2 24/4/2
f 23/6/2 24/6/2 25/6/2
f 25/6/2 24/6/2 26/6/2
f 26/6/2 24/6/2 27/6/2
f 27/6/2 24/6/2 28/6/2
f 28/6/2 24/6/2 29/6/2
f 29/6/2 24/6/2 30/6/2
f 23/6/2 25/6/2 31/6/2
f 25/4/2 26/4/2 31/4/2
f 26/6/2 27/6/2 32/6/2
f 31/4/2 26/4/2 32/4/2
f 27/4/2 28/4/2 33/4/2
f 32/6/2 27/6/2 33/6/2
f 28/6/2 29/6/2 34/6/2
f 33/4/2 28/4/2 34/4/2
f 29/4/2 30/4/2 35/4/2
f 34/6/2 29/6/2 35/6/2
f 30/6/2 24/6/2 36/6/2
f 35/4/2 30/4/2 36/4/2
f 21/4/2 23/4/2 37/4/2
f 34/6/2 35/6/2 37/6/2
f 35/6/2 36/6/2 37/6/2
f 32/6/2 33/6/2 37/6/2
f 31/6/2 32/6/2 37/6/2
f 23/6/2 31/6/2 37/6/2
f 33/6/2 34/6/2 37/6/2
f 36/6/2 24/6/2 38/6/2
f 37/6/2 36/6/2 38/6/2
f 24/4/2 22/4/2 38/4/2
f 21/4/2 37/4/2 39/4/2
f 37/4/2 38/4/2 39/4/2
f 38/4/2 22/4/2 40/4/2
f 39/4/2 38/4/2 40/4/2
f 43/4/3 42/4/3 41/4/3
f 44/4/3 42/4/3 43/4/3
f 45/4/3 42/4/3 44/4/3
f 46/4/3 42/4/3 45/4/3
f 47/4/3 43/4/3 41/4/3
f 47/3/3 44/3/3 43/3/3
f 48/4/3 45/4/3 44/4/3
f 48/3/3 44/3/3 47/3/3
f 49/3/3 46/3/3 45/3/3
f 50/4/3 42/4/3 46/4/3
f 50/3/3 46/3/3 49/3/3
f 51/4/3 42/4/3 50/4/3
f 52/4/3 47/4/3 41/4/3
f 52/4/3 48/4/3 47/4/3
f 53/4/3 45/4/3 48/4/3
f 53/4/3 48/4/3 52/4/3
f 54/3/3 49/3/3 45/3/3
f 54/4/3 45/4/3 53/4/3
f 55/4/3 50/4/3 49/4/3
f 55/3/3 49/3/3 54/3/3
f 56/3/3 51/3/3 50/3/3
f 56/4/3 50/4/3 55/4/3
f 57/4/3 55/4/3 54/4/3
f 57/4/3 54/4/3 53/4/3
f 58/3/3 56/3/3 55/3/3
f 58/4/3 55/4/3 57/4/3
f 59/3/3 51/3/3 56/3/3
f 59/3/3 56/3/3 58/3/3
f 60/3/3 53/3/3 52/3/3
f 60/4/3 52/4/3 41/4/3
f 61/4/3 57/4/3 53/4/3
f 61/3/3 53/3/3 60/3/3
f 62/3/3 58/3/3 57/3/3
f 62/4/3 57/4/3 61/4/3
f 63/4/3 59/4/3 58/4/3
f 63/3/3 58/3/3 62/3/3
f 64/3/3 51/3/3 59/3/3
f 64/4/3 59/4/3 63/4/3
f 65/4/3 63/4/3 62/4/3
f 65/4/3 62/4/3 61/4/3
f 65/3/3 64/3/3 63/3/3
f 65/4/3 61/4/3 60/4/3
f 66/3/3 51/3/3 64/3/3
f 66/3/3 64/3/3 65/3/3
f 66/4/3 42/4/3 51/4/3
f 67/4/3 66/4/3 65/4/3
f 67/4/3 42/4/3 66/4/3
f 68/4/3 42/4/3 67/4/3
f 69/4/3 67/4/3 65/4/3
f 69/5/3 68/5/3 67/5/3
f 70/5/3 68/5/3 69/5/3
f 71/4/3 65/4/3 60/4/3
f 71/4/3 60/4/3 41/4/3
f 71/4/3 70/4/3 69/4/3
f 71/4/3 69/4/3 65/4/3
f 72/4/3 70/4/3 71/4/3
f 73/4/3 70/4/3 72/4/3
f 74/4/3 70/4/3 73/4/3
f 75/4/3 71/4/3 41/4/3
f 75/1/3 72/1/3 71/1/3
f 76/2/3 73/2/3 72/2/3
f 76/1/3 72/1/3 75/1/3
f 77/4/3 75/4/3 41/4/3
f 77/2/3 76/2/3 75/2/3
f 78/1/3 74/1/3 73/1/3
f 78/2/3 76/2/3 77/2/3
f 78/2/3 73/2/3 76/2/3
f 79/4/3 70/4/3 74/4/3
f 79/1/3 74/1/3 78/1/3
f 80/1/3 78/1/3 77/1/3
f 80/4/3 77/4/3 41/4/3
f 81/2/3 79/2/3 78/2/3
f 81/1/3 78/1/3 80/1/3
f 82/4/3 70/4/3 79/4/3
f 82/2/3 79/2/3 81/2/3
f 83/2/3 81/2/3 80/2/3
f 83/4/3 80/4/3 41/4/3
f 84/1/3 82/1/3 81/1/3
f 84/2/3 81/2/3 83/2/3
f 85/1/3 84/1/3 83/1/3
f 86/1/3 82/1/3 84/1/3
f 86/1/3 84/1/3 85/1/3
f 87/4/3 83/4/3 41/4/3
f 87/1/3 85/1/3 83/1/3
f 88/2/3 86/2/3 85/2/3
f 88/1/3 85/1/3 87/1/3
f 89/1/3 82/1/3 86/1/3
f 89/2/3 86/2/3 88/2/3
f 90/4/3 70/4/3 82/4/3
f 90/1/3 82/1/3 89/1/3
f 91/4/3 89/4/3 88/4/3
f 91/4/3 88/4/3 87/4/3
f 91/4/3 90/4/3 89/4/3
f 91/4/3 87/4/3 41/4/3
f 92/4/3 70/4/3 90/4/3
f 92/4/3 90/4/3 91/4/3
f 93/4/4 94/4/4 95/4/4
f 95/4/4 94/4/4 96/4/4
f 96/4/4 94/4/4 97/4/4
f 97/4/4 94/4/4 98/4/4
f 93/4/4 95/4/4 99/4/4
f 95/3/4 96/3/4 99/3/4
f 96/4/4 97/4/4 100/4/4
f 99/3/4 96/3/4 100/3/4
f 97/3/4 98/3/4 101/3/4
f 98/4/4 94/4/4 102/4/4
f 101/3/4 98/3/4 102/3/4
f 102/4/4 94/4/4 103/4/4
f 93/4/4 99/4/4 104/4/4
f 99/4/4 100/4/4 104/4/4
f 100/4/4 97/4/4 105/4/4
f 104/4/4 100/4/4 105/4/4
f 97/3/4 101/3/4 106/3/4
f 105/4/4 97/4/4 106/4/4
f 101/4/4 102/4/4 107/4/4
f 106/3/4 101/3/4 107/3/4
f 102/3/4 103/3/4 108/3/4
f 107/4/4 102/4/4 108/4/4
f 106/4/4 107/4/4 109/4/4
f 105/4/4 106/4/4 109/4/4
f 107/3/4 108/3/4 110/3/4
f 109/4/4 107/4/4 110/4/4
f 108/3/4 103/3/4 111/3/4
f 110/3/4 108/3/4 111/3/4
f 104/3/4 105/3/4 112/3/4
f 93/4/4 104/4/4 112/4/4
f 105/4/4 109/4/4 113/4/4
f 112/3/4 105/3/4 113/3/4
f 109/3/4 110/3/4 114/3/4
f 113/4/4 109/4/4 114/4/4
f 110/4/4 111/4/4 115/4/4
f 114/3/4 110/3/4 115/3/4
f 111/3/4 103/3/4 116/3/4
f 115/4/4 111/4/4 116/4/4
f 114/4/4 115/4/4 117/4/4
f 113/4/4 114/4/4 117/4/4
f 115/3/4 116/3/4 117/3/4
f 112/4/4 113/4/4 117/4/4
f 116/3/4 103/3/4 118/3/4
f 117/3/4 116/3/4 118/3/4
f 103/4/4 94/4/4 118/4/4
f 117/4/4 118/4/4 119/4/4
f 118/4/4 94/4/4 119/4/4
f 119/4/4 94/4/4 120/4/4
f 117/4/4 119/4/4 121/4/4
f 119/5/4 120/5/4 121/5/4
f 121/5/4 120/5/4 122/5/4
f 112/4/4 117/4/4 123/4/4
f 93/4/4 112/4/4 123/4/4
f 121/4/4 122/4/4 123/4/4
f 117/4/4 121/4/4 123/4/4
f 123/4/4 122/4/4 124/4/4
f 124/4/4 122/4/4 125/4/4
f 125/4/4 122/4/4 126/4/4
f 93/4/4 123/4/4 127/4/4
f 123/1/4 124/1/4 127/1/4
f 124/2/4 125/2/4 128/2/4
f 127/1/4 124/1/4 128/1/4
f 93/4/4 127/4/4 129/4/4
f 127/2/4 128/2/4 129/2/4
f 125/1/4 126/1/4 130/1/4
f 129/2/4 128/2/4 130/2/4
f 128/2/4 125/2/4 130/2/4
f 126/4/4 122/4/4 131/4/4
f 130/1/4 126/1/4 131/1/4
f 129/1/4 130/1/4 132/1/4
f 93/4/4 129/4/4 132/4/4
f 130/2/4 131/2/4 133/2/4
f 132/1/4 130/1/4 133/1/4
f 131/4/4 122/4/4 134/4/4
f 133/2/4 131/2/4 134/2/4
f 132/2/4 133/2/4 135/2/4
f 93/4/4 132/4/4 135/4/4
f 133/1/4 134/1/4 136/1/4
f 135/2/4 133/2/4 136/2/4
f 135/1/4 136/1/4 137/1/4
f 136/1/4 134/1/4 138/1/4
f 137/1/4 136/1/4 138/1/4
f 93/4/4 135/4/4 139/4/4
f 135/1/4 137/1/4 139/1/4
f 137/2/4 138/2/4 140/2/4
f 139/1/4 137/1/4 140/1/4
f 138/1/4 134/1/4 141/1/4
f 140/2/4 138/2/4 141/2/4
f 134/4/4 122/4/4 142/4/4
f 141/1/4 134/1/4 142/1/4
f 140/4/4 141/4/4 143/4/4
f 139/4/4 140/4/4 143/4/4
f 141/4/4 142/4/4 143/4/4
f 93/4/4 139/4/4 143/4/4
f 142/4/4 122/4/4 144/4/4
f 143/4/4 142/4/4 144/4/4
f 147/4/5 146/4/5 145/4/5
f 148/4/5 146/4/5 147/4/5
f 149/4/6 150/4/6 153/4/6
f 150/5/6 151/5/6 154/5/6
f 153/4/6 150/4/6 154/4/6
f 151/4/6 152/4/6 155/4/6
f 154/5/6 151/5/6 155/5/6
f 155/4/6 152/4/6 156/4/6
