# MagicaVoxel @ Ephtracy

# group
o 

# material
mtllib caja carton 2.mtl
usemtl palette

# normals
vn -1 0 0
vn 1 0 0
vn 0 0 1
vn 0 0 -1
vn 0 -1 0
vn 0 1 0

# texcoords
vt 0.00195313 0.5
vt 0.0292969 0.5
vt 0.0957031 0.5
vt 0.138672 0.5
vt 0.146484 0.5
vt 0.150391 0.5
vt 0.154297 0.5

# verts
v -1.6 0 1.6
v -1.6 0 -1.6
v -1.6 0.2 1.2
v -1.6 0.2 0.6
v -1.6 0.3 1.2
v -1.6 0.3 0.6
v -1.6 0.4 1.2
v -1.6 0.4 0.6
v -1.6 0.5 1.2
v -1.6 0.5 0.6
v -1.6 2.3 -0.8
v -1.6 2.3 -0.9
v -1.6 2.3 -1
v -1.6 2.3 -1.1
v -1.6 2.3 -1.2
v -1.6 2.3 -1.4
v -1.6 2.5 -1
v -1.6 2.5 -1.1
v -1.6 2.5 -1.2
v -1.6 2.5 -1.4
v -1.6 2.6 -1
v -1.6 2.6 -1.1
v -1.6 2.6 -1.2
v -1.6 2.6 -1.4
v -1.6 2.8 -0.8
v -1.6 2.8 -0.9
v -1.6 2.8 -1
v -1.6 2.8 -1.1
v -1.6 2.8 -1.2
v -1.6 2.8 -1.4
v -1.6 3.2 1.6
v -1.6 3.2 -1.6
v 1.6 0 1.6
v 1.6 0 -1.6
v 1.6 0.2 -0.2
v 1.6 0.2 -1.4
v 1.6 0.3 -0.3
v 1.6 0.3 -0.6
v 1.6 0.3 -0.7
v 1.6 0.3 -1
v 1.6 0.3 -1.1
v 1.6 0.3 -1.3
v 1.6 0.4 -0.4
v 1.6 0.4 -0.5
v 1.6 0.4 -0.8
v 1.6 0.4 -0.9
v 1.6 0.5 -0.8
v 1.6 0.5 -0.9
v 1.6 0.6 -0.4
v 1.6 0.6 -0.5
v 1.6 0.6 -0.8
v 1.6 0.6 -0.9
v 1.6 0.7 -0.8
v 1.6 0.7 -0.9
v 1.6 0.8 -0.3
v 1.6 0.8 -0.6
v 1.6 0.8 -0.7
v 1.6 0.8 -1
v 1.6 0.8 -1.1
v 1.6 0.8 -1.3
v 1.6 0.9 -0.2
v 1.6 0.9 -1.4
v 1.6 2.5 1.4
v 1.6 2.5 1.3
v 1.6 2.5 1.2
v 1.6 2.5 1.1
v 1.6 2.6 1.4
v 1.6 2.6 1.3
v 1.6 2.6 1.2
v 1.6 2.6 1.1
v 1.6 2.7 1.4
v 1.6 2.7 1.3
v 1.6 2.7 1.2
v 1.6 2.7 1.1
v 1.6 2.8 1.4
v 1.6 2.8 1.3
v 1.6 2.8 1.2
v 1.6 2.8 1.1
v 1.6 3.2 1.6
v 1.6 3.2 -1.6
v -1.6 0 1.6
v -1.6 3.2 1.6
v -1.5 2.5 1.6
v -1.5 2.7 1.6
v -1.4 2 1.6
v -1.4 2.2 1.6
v -1.4 2.3 1.6
v -1.4 2.4 1.6
v -1.4 2.6 1.6
v -1.4 2.7 1.6
v -1.4 2.8 1.6
v -1.3 2 1.6
v -1.3 2.1 1.6
v -1.2 2.1 1.6
v -1.2 2.2 1.6
v -1.1 2 1.6
v -1.1 2.2 1.6
v -1.1 2.3 1.6
v -1.1 2.4 1.6
v -1.1 2.5 1.6
v -1 2 1.6
v -1 2.1 1.6
v -1 2.4 1.6
v -1 2.5 1.6
v -1 2.7 1.6
v -1 2.8 1.6
v -0.9 2 1.6
v -0.9 2.1 1.6
v -0.9 2.2 1.6
v -0.9 2.3 1.6
v -0.9 2.5 1.6
v -0.9 2.6 1.6
v -0.9 2.8 1.6
v -0.8 2 1.6
v -0.8 2.1 1.6
v -0.8 2.2 1.6
v -0.8 2.4 1.6
v -0.8 2.5 1.6
v -0.8 2.6 1.6
v -0.8 2.7 1.6
v -0.7 2 1.6
v -0.7 2.1 1.6
v -0.6 2 1.6
v -0.6 2.1 1.6
v -0.6 2.3 1.6
v -0.6 2.4 1.6
v -0.6 2.5 1.6
v -0.6 2.6 1.6
v -0.6 2.7 1.6
v -0.6 2.8 1.6
v -0.5 2.1 1.6
v -0.5 2.2 1.6
v -0.5 2.4 1.6
v -0.5 2.5 1.6
v -0.5 2.6 1.6
v -0.5 2.7 1.6
v -0.4 2.4 1.6
v -0.4 2.5 1.6
v -0.4 2.6 1.6
v -0.4 2.7 1.6
v -0.3 2.4 1.6
v -0.3 2.5 1.6
v -0.3 2.6 1.6
v -0.3 2.7 1.6
v -0.2 0 1.6
v -0.2 0.1 1.6
v -0.2 2.5 1.6
v -0.2 2.6 1.6
v -0.2 3.1 1.6
v -0.2 3.2 1.6
v 0.2 0 1.6
v 0.2 0.1 1.6
v 0.2 3.1 1.6
v 0.2 3.2 1.6
v 1.6 0 1.6
v 1.6 3.2 1.6
v -1.6 0 -1.6
v -1.6 3.2 -1.6
v -0.2 0 -1.6
v -0.2 0.1 -1.6
v -0.2 3.1 -1.6
v -0.2 3.2 -1.6
v 0.2 0 -1.6
v 0.2 0.1 -1.6
v 0.2 3.1 -1.6
v 0.2 3.2 -1.6
v 1.6 0 -1.6
v 1.6 3.2 -1.6
v -1.6 0 1.6
v -0.2 0 1.6
v 0.2 0 1.6
v 1.6 0 1.6
v -1.6 0 -1.6
v -0.2 0 -1.6
v 0.2 0 -1.6
v 1.6 0 -1.6
v -1.6 3.2 1.6
v -0.2 3.2 1.6
v 0.2 3.2 1.6
v 1.6 3.2 1.6
v 1 3.2 -0.7
v 1.1 3.2 -0.7
v 1.2 3.2 -0.7
v 1.3 3.2 -0.7
v 1.4 3.2 -0.7
v 1.2 3.2 -0.8
v 1.3 3.2 -0.8
v 1.4 3.2 -0.8
v 1 3.2 -0.9
v 1.1 3.2 -0.9
v 1.2 3.2 -0.9
v 1.3 3.2 -0.9
v 1.3 3.2 -1
v 1.4 3.2 -1
v 1 3.2 -1.1
v 1.2 3.2 -1.1
v 1.3 3.2 -1.1
v 1.4 3.2 -1.1
v 1 3.2 -1.2
v 1.1 3.2 -1.2
v 1.3 3.2 -1.2
v 1.4 3.2 -1.2
v 1.3 3.2 -1.3
v 1.4 3.2 -1.3
v 1 3.2 -1.4
v 1.1 3.2 -1.4
v 1.4 3.2 -1.4
v -1.6 3.2 -1.6
v -0.2 3.2 -1.6
v 0.2 3.2 -1.6
v 1.6 3.2 -1.6

# faces
f 3/4/1 2/4/1 1/4/1
f 4/4/1 2/4/1 3/4/1
f 5/4/1 3/4/1 1/4/1
f 5/7/1 4/7/1 3/7/1
f 6/4/1 2/4/1 4/4/1
f 6/7/1 4/7/1 5/7/1
f 7/4/1 5/4/1 1/4/1
f 7/4/1 6/4/1 5/4/1
f 8/4/1 2/4/1 6/4/1
f 8/4/1 6/4/1 7/4/1
f 9/4/1 7/4/1 1/4/1
f 9/7/1 8/7/1 7/7/1
f 10/4/1 2/4/1 8/4/1
f 10/7/1 8/7/1 9/7/1
f 11/4/1 10/4/1 9/4/1
f 11/4/1 2/4/1 10/4/1
f 12/4/1 2/4/1 11/4/1
f 13/4/1 2/4/1 12/4/1
f 14/4/1 2/4/1 13/4/1
f 15/4/1 2/4/1 14/4/1
f 16/4/1 2/4/1 15/4/1
f 17/4/1 13/4/1 12/4/1
f 17/6/1 14/6/1 13/6/1
f 18/4/1 15/4/1 14/4/1
f 18/6/1 14/6/1 17/6/1
f 19/6/1 16/6/1 15/6/1
f 19/4/1 15/4/1 18/4/1
f 20/4/1 2/4/1 16/4/1
f 20/6/1 16/6/1 19/6/1
f 21/4/1 19/4/1 18/4/1
f 21/4/1 18/4/1 17/4/1
f 21/4/1 20/4/1 19/4/1
f 21/4/1 17/4/1 12/4/1
f 22/4/1 20/4/1 21/4/1
f 23/4/1 20/4/1 22/4/1
f 24/4/1 2/4/1 20/4/1
f 24/4/1 20/4/1 23/4/1
f 25/4/1 11/4/1 9/4/1
f 25/6/1 12/6/1 11/6/1
f 26/4/1 21/4/1 12/4/1
f 26/6/1 12/6/1 25/6/1
f 27/6/1 22/6/1 21/6/1
f 27/4/1 21/4/1 26/4/1
f 28/4/1 23/4/1 22/4/1
f 28/6/1 22/6/1 27/6/1
f 29/6/1 24/6/1 23/6/1
f 29/4/1 23/4/1 28/4/1
f 30/4/1 2/4/1 24/4/1
f 30/6/1 24/6/1 29/6/1
f 31/4/1 9/4/1 1/4/1
f 31/4/1 29/4/1 28/4/1
f 31/4/1 30/4/1 29/4/1
f 31/4/1 26/4/1 25/4/1
f 31/4/1 25/4/1 9/4/1
f 31/4/1 27/4/1 26/4/1
f 31/4/1 28/4/1 27/4/1
f 32/4/1 2/4/1 30/4/1
f 32/4/1 30/4/1 31/4/1
f 33/4/2 34/4/2 35/4/2
f 35/4/2 34/4/2 36/4/2
f 35/6/2 36/6/2 37/6/2
f 37/6/2 36/6/2 38/6/2
f 38/6/2 36/6/2 39/6/2
f 39/6/2 36/6/2 40/6/2
f 40/6/2 36/6/2 41/6/2
f 41/6/2 36/6/2 42/6/2
f 37/4/2 38/4/2 43/4/2
f 43/4/2 38/4/2 44/4/2
f 39/4/2 40/4/2 45/4/2
f 45/4/2 40/4/2 46/4/2
f 39/4/2 45/4/2 47/4/2
f 45/6/2 46/6/2 47/6/2
f 46/4/2 40/4/2 48/4/2
f 47/6/2 46/6/2 48/6/2
f 37/4/2 43/4/2 49/4/2
f 43/6/2 44/6/2 49/6/2
f 44/4/2 38/4/2 50/4/2
f 49/6/2 44/6/2 50/6/2
f 47/4/2 48/4/2 51/4/2
f 39/4/2 47/4/2 51/4/2
f 48/4/2 40/4/2 52/4/2
f 51/4/2 48/4/2 52/4/2
f 39/4/2 51/4/2 53/4/2
f 51/6/2 52/6/2 53/6/2
f 52/4/2 40/4/2 54/4/2
f 53/6/2 52/6/2 54/6/2
f 35/6/2 37/6/2 55/6/2
f 37/4/2 49/4/2 55/4/2
f 49/4/2 50/4/2 55/4/2
f 38/6/2 39/6/2 56/6/2
f 55/4/2 50/4/2 56/4/2
f 50/4/2 38/4/2 56/4/2
f 53/4/2 54/4/2 57/4/2
f 56/6/2 39/6/2 57/6/2
f 39/4/2 53/4/2 57/4/2
f 54/4/2 40/4/2 58/4/2
f 57/4/2 54/4/2 58/4/2
f 40/6/2 41/6/2 58/6/2
f 41/4/2 42/4/2 59/4/2
f 58/6/2 41/6/2 59/6/2
f 42/6/2 36/6/2 60/6/2
f 59/4/2 42/4/2 60/4/2
f 33/4/2 35/4/2 61/4/2
f 56/6/2 57/6/2 61/6/2
f 59/6/2 60/6/2 61/6/2
f 57/6/2 58/6/2 61/6/2
f 55/6/2 56/6/2 61/6/2
f 35/6/2 55/6/2 61/6/2
f 58/6/2 59/6/2 61/6/2
f 60/6/2 36/6/2 62/6/2
f 61/6/2 60/6/2 62/6/2
f 36/4/2 34/4/2 62/4/2
f 33/4/2 61/4/2 63/4/2
f 61/4/2 62/4/2 63/4/2
f 63/4/2 62/4/2 64/4/2
f 64/4/2 62/4/2 65/4/2
f 65/4/2 62/4/2 66/4/2
f 33/4/2 63/4/2 67/4/2
f 63/6/2 64/6/2 67/6/2
f 64/4/2 65/4/2 68/4/2
f 67/6/2 64/6/2 68/6/2
f 65/6/2 66/6/2 69/6/2
f 68/4/2 65/4/2 69/4/2
f 66/4/2 62/4/2 70/4/2
f 69/6/2 66/6/2 70/6/2
f 68/4/2 69/4/2 71/4/2
f 67/4/2 68/4/2 71/4/2
f 69/4/2 70/4/2 71/4/2
f 33/4/2 67/4/2 71/4/2
f 71/4/2 70/4/2 72/4/2
f 72/4/2 70/4/2 73/4/2
f 70/4/2 62/4/2 74/4/2
f 73/4/2 70/4/2 74/4/2
f 33/4/2 71/4/2 75/4/2
f 71/6/2 72/6/2 75/6/2
f 72/4/2 73/4/2 76/4/2
f 75/6/2 72/6/2 76/6/2
f 73/6/2 74/6/2 77/6/2
f 76/4/2 73/4/2 77/4/2
f 74/4/2 62/4/2 78/4/2
f 77/6/2 74/6/2 78/6/2
f 33/4/2 75/4/2 79/4/2
f 76/4/2 77/4/2 79/4/2
f 77/4/2 78/4/2 79/4/2
f 75/4/2 76/4/2 79/4/2
f 62/4/2 34/4/2 80/4/2
f 79/4/2 78/4/2 80/4/2
f 78/4/2 62/4/2 80/4/2
f 83/4/3 82/4/3 81/4/3
f 84/4/3 82/4/3 83/4/3
f 85/4/3 83/4/3 81/4/3
f 86/4/3 83/4/3 85/4/3
f 87/4/3 83/4/3 86/4/3
f 88/4/3 83/4/3 87/4/3
f 89/3/3 84/3/3 83/3/3
f 90/4/3 82/4/3 84/4/3
f 90/3/3 84/3/3 89/3/3
f 91/4/3 82/4/3 90/4/3
f 92/4/3 85/4/3 81/4/3
f 92/3/3 86/3/3 85/3/3
f 93/3/3 86/3/3 92/3/3
f 94/4/3 93/4/3 92/4/3
f 94/3/3 86/3/3 93/3/3
f 95/4/3 87/4/3 86/4/3
f 95/3/3 86/3/3 94/3/3
f 96/4/3 94/4/3 92/4/3
f 96/4/3 92/4/3 81/4/3
f 96/4/3 95/4/3 94/4/3
f 97/4/3 87/4/3 95/4/3
f 97/4/3 95/4/3 96/4/3
f 98/3/3 88/3/3 87/3/3
f 98/4/3 87/4/3 97/4/3
f 99/4/3 83/4/3 88/4/3
f 99/3/3 88/3/3 98/3/3
f 100/3/3 89/3/3 83/3/3
f 100/4/3 83/4/3 99/4/3
f 101/4/3 96/4/3 81/4/3
f 101/3/3 97/3/3 96/3/3
f 102/3/3 97/3/3 101/3/3
f 103/4/3 99/4/3 98/4/3
f 103/4/3 98/4/3 97/4/3
f 103/3/3 100/3/3 99/3/3
f 104/3/3 89/3/3 100/3/3
f 104/3/3 100/3/3 103/3/3
f 105/3/3 91/3/3 90/3/3
f 105/4/3 90/4/3 89/4/3
f 106/4/3 82/4/3 91/4/3
f 106/3/3 91/3/3 105/3/3
f 107/4/3 102/4/3 101/4/3
f 107/4/3 101/4/3 81/4/3
f 108/3/3 97/3/3 102/3/3
f 108/4/3 102/4/3 107/4/3
f 109/4/3 103/4/3 97/4/3
f 109/3/3 97/3/3 108/3/3
f 109/4/3 104/4/3 103/4/3
f 110/4/3 104/4/3 109/4/3
f 111/3/3 89/3/3 104/3/3
f 111/4/3 104/4/3 110/4/3
f 112/4/3 105/4/3 89/4/3
f 112/3/3 89/3/3 111/3/3
f 112/4/3 106/4/3 105/4/3
f 113/4/3 82/4/3 106/4/3
f 113/4/3 106/4/3 112/4/3
f 114/4/3 107/4/3 81/4/3
f 114/3/3 108/3/3 107/3/3
f 115/4/3 110/4/3 109/4/3
f 115/3/3 108/3/3 114/3/3
f 115/4/3 109/4/3 108/4/3
f 116/4/3 110/4/3 115/4/3
f 117/3/3 112/3/3 111/3/3
f 117/3/3 111/3/3 110/3/3
f 117/3/3 113/3/3 112/3/3
f 118/3/3 113/3/3 117/3/3
f 119/3/3 113/3/3 118/3/3
f 120/3/3 113/3/3 119/3/3
f 121/4/3 114/4/3 81/4/3
f 121/4/3 115/4/3 114/4/3
f 122/3/3 116/3/3 115/3/3
f 122/4/3 115/4/3 121/4/3
f 123/4/3 121/4/3 81/4/3
f 123/3/3 122/3/3 121/3/3
f 124/3/3 116/3/3 122/3/3
f 124/3/3 122/3/3 123/3/3
f 125/4/3 110/4/3 116/4/3
f 125/3/3 117/3/3 110/3/3
f 126/4/3 118/4/3 117/4/3
f 126/3/3 117/3/3 125/3/3
f 127/3/3 119/3/3 118/3/3
f 127/4/3 118/4/3 126/4/3
f 128/4/3 120/4/3 119/4/3
f 128/3/3 119/3/3 127/3/3
f 129/3/3 113/3/3 120/3/3
f 129/4/3 120/4/3 128/4/3
f 130/4/3 82/4/3 113/4/3
f 130/3/3 113/3/3 129/3/3
f 131/3/3 116/3/3 124/3/3
f 131/4/3 124/4/3 123/4/3
f 132/4/3 125/4/3 116/4/3
f 132/3/3 116/3/3 131/3/3
f 132/4/3 126/4/3 125/4/3
f 133/3/3 129/3/3 128/3/3
f 133/4/3 126/4/3 132/4/3
f 133/3/3 128/3/3 127/3/3
f 133/3/3 127/3/3 126/3/3
f 134/3/3 129/3/3 133/3/3
f 135/3/3 129/3/3 134/3/3
f 136/4/3 130/4/3 129/4/3
f 136/3/3 129/3/3 135/3/3
f 137/4/3 132/4/3 131/4/3
f 137/4/3 133/4/3 132/4/3
f 137/4/3 134/4/3 133/4/3
f 138/3/3 135/3/3 134/3/3
f 138/4/3 134/4/3 137/4/3
f 139/4/3 136/4/3 135/4/3
f 139/3/3 135/3/3 138/3/3
f 140/4/3 130/4/3 136/4/3
f 140/4/3 136/4/3 139/4/3
f 141/3/3 139/3/3 138/3/3
f 141/4/3 137/4/3 131/4/3
f 141/3/3 140/3/3 139/3/3
f 141/3/3 138/3/3 137/3/3
f 142/3/3 140/3/3 141/3/3
f 143/3/3 140/3/3 142/3/3
f 144/4/3 130/4/3 140/4/3
f 144/3/3 140/3/3 143/3/3
f 145/4/3 123/4/3 81/4/3
f 145/4/3 131/4/3 123/4/3
f 145/4/3 141/4/3 131/4/3
f 145/4/3 142/4/3 141/4/3
f 146/4/3 142/4/3 145/4/3
f 147/3/3 143/3/3 142/3/3
f 147/4/3 142/4/3 146/4/3
f 148/4/3 144/4/3 143/4/3
f 148/3/3 143/3/3 147/3/3
f 149/4/3 82/4/3 130/4/3
f 149/4/3 144/4/3 148/4/3
f 149/4/3 130/4/3 144/4/3
f 150/4/3 82/4/3 149/4/3
f 151/5/3 146/5/3 145/5/3
f 152/4/3 148/4/3 147/4/3
f 152/5/3 146/5/3 151/5/3
f 152/4/3 147/4/3 146/4/3
f 152/4/3 149/4/3 148/4/3
f 153/5/3 150/5/3 149/5/3
f 153/4/3 149/4/3 152/4/3
f 154/5/3 150/5/3 153/5/3
f 155/4/3 152/4/3 151/4/3
f 155/4/3 153/4/3 152/4/3
f 155/4/3 154/4/3 153/4/3
f 156/4/3 154/4/3 155/4/3
f 157/4/4 158/4/4 159/4/4
f 159/4/4 158/4/4 160/4/4
f 160/4/4 158/4/4 161/4/4
f 161/4/4 158/4/4 162/4/4
f 159/5/4 160/5/4 163/5/4
f 160/4/4 161/4/4 164/4/4
f 163/5/4 160/5/4 164/5/4
f 161/5/4 162/5/4 165/5/4
f 164/4/4 161/4/4 165/4/4
f 165/5/4 162/5/4 166/5/4
f 163/4/4 164/4/4 167/4/4
f 164/4/4 165/4/4 167/4/4
f 165/4/4 166/4/4 167/4/4
f 167/4/4 166/4/4 168/4/4
f 173/4/5 170/4/5 169/4/5
f 174/5/5 171/5/5 170/5/5
f 174/4/5 170/4/5 173/4/5
f 175/4/5 172/4/5 171/4/5
f 175/5/5 171/5/5 174/5/5
f 176/4/5 172/4/5 175/4/5
f 179/4/6 180/4/6 181/4/6
f 181/4/6 180/4/6 182/4/6
f 182/4/6 180/4/6 183/4/6
f 183/4/6 180/4/6 184/4/6
f 184/4/6 180/4/6 185/4/6
f 182/2/6 183/2/6 186/2/6
f 183/1/6 184/1/6 186/1/6
f 184/2/6 185/2/6 187/2/6
f 186/1/6 184/1/6 187/1/6
f 185/4/6 180/4/6 188/4/6
f 187/2/6 185/2/6 188/2/6
f 179/4/6 181/4/6 189/4/6
f 181/1/6 182/1/6 189/1/6
f 186/2/6 187/2/6 190/2/6
f 189/1/6 182/1/6 190/1/6
f 182/2/6 186/2/6 190/2/6
f 190/2/6 187/2/6 191/2/6
f 187/1/6 188/1/6 192/1/6
f 191/2/6 187/2/6 192/2/6
f 191/1/6 192/1/6 193/1/6
f 192/1/6 188/1/6 193/1/6
f 188/4/6 180/4/6 194/4/6
f 193/1/6 188/1/6 194/1/6
f 190/2/6 191/2/6 195/2/6
f 179/4/6 189/4/6 195/4/6
f 189/2/6 190/2/6 195/2/6
f 191/1/6 193/1/6 196/1/6
f 195/2/6 191/2/6 196/2/6
f 193/2/6 194/2/6 197/2/6
f 196/1/6 193/1/6 197/1/6
f 194/4/6 180/4/6 198/4/6
f 197/2/6 194/2/6 198/2/6
f 179/4/6 195/4/6 199/4/6
f 196/1/6 197/1/6 199/1/6
f 197/1/6 198/1/6 199/1/6
f 195/1/6 196/1/6 199/1/6
f 199/1/6 198/1/6 200/1/6
f 200/1/6 198/1/6 201/1/6
f 198/4/6 180/4/6 202/4/6
f 201/1/6 198/1/6 202/1/6
f 200/1/6 201/1/6 203/1/6
f 201/2/6 202/2/6 203/2/6
f 202/4/6 180/4/6 204/4/6
f 203/2/6 202/2/6 204/2/6
f 179/4/6 199/4/6 205/4/6
f 199/2/6 200/2/6 205/2/6
f 200/1/6 203/1/6 206/1/6
f 205/2/6 200/2/6 206/2/6
f 203/1/6 204/1/6 206/1/6
f 204/4/6 180/4/6 207/4/6
f 206/1/6 204/1/6 207/1/6
f 177/4/6 178/4/6 208/4/6
f 178/5/6 179/5/6 209/5/6
f 208/4/6 178/4/6 209/4/6
f 179/4/6 205/4/6 210/4/6
f 209/5/6 179/5/6 210/5/6
f 205/4/6 206/4/6 210/4/6
f 206/4/6 207/4/6 210/4/6
f 207/4/6 180/4/6 211/4/6
f 210/4/6 207/4/6 211/4/6
