# MagicaVoxel @ Ephtracy

# group
o 

# material
mtllib caja carton 3.mtl
usemtl palette

# normals
vn -1 0 0
vn 1 0 0
vn 0 0 1
vn 0 0 -1
vn 0 -1 0
vn 0 1 0

# texcoords
vt 0.00195313 0.5
vt 0.0292969 0.5
vt 0.103516 0.5
vt 0.138672 0.5
vt 0.146484 0.5
vt 0.150391 0.5

# verts
v -0.7 1.1 1.2
v -0.7 1.1 -1.2
v -0.7 1.2 1.1
v -0.7 1.2 0.9
v -0.7 1.2 0.8
v -0.7 1.2 0.4
v -0.7 1.2 0.0999999
v -0.7 1.2 -0.6
v -0.7 1.2 -0.9
v -0.7 1.2 -1
v -0.7 1.2 -1.1
v -0.7 1.3 1.1
v -0.7 1.3 0.9
v -0.7 1.3 0.7
v -0.7 1.3 0.4
v -0.7 1.3 0.2
v -0.7 1.3 -0.5
v -0.7 1.3 -0.6
v -0.7 1.3 -0.7
v -0.7 1.3 -0.8
v -0.7 1.3 -0.9
v -0.7 1.3 -1
v -0.7 1.4 1.1
v -0.7 1.4 0.9
v -0.7 1.4 0.6
v -0.7 1.4 0.5
v -0.7 1.4 0.4
v -0.7 1.4 0.2
v -0.7 1.4 -0.5
v -0.7 1.4 -0.6
v -0.7 1.4 -0.7
v -0.7 1.4 -0.8
v -0.7 1.4 -0.9
v -0.7 1.4 -1
v -0.7 1.4 -1.1
v -0.7 1.5 1
v -0.7 1.5 0.9
v -0.7 1.5 0.8
v -0.7 1.5 0.7
v -0.7 1.5 0.6
v -0.7 1.5 0.4
v -0.7 1.5 0.3
v -0.7 1.5 0.2
v -0.7 1.5 0.0999999
v -0.7 1.5 -0.6
v -0.7 1.5 -1
v -0.7 1.6 0.9
v -0.7 1.6 0.8
v -0.7 1.6 0.7
v -0.7 1.6 0.5
v -0.7 1.7 0.9
v -0.7 1.7 0.8
v -0.7 1.7 0.7
v -0.7 1.7 0.4
v -0.7 1.7 0.3
v -0.7 1.7 0.2
v -0.7 1.8 0.9
v -0.7 1.8 0.8
v -0.7 1.8 0.6
v -0.7 1.8 0.4
v -0.7 1.8 0.3
v -0.7 1.8 0.2
v -0.7 1.9 1.1
v -0.7 1.9 1
v -0.7 1.9 0.8
v -0.7 1.9 0.6
v -0.7 1.9 0.2
v -0.7 1.9 0.0999999
v -0.7 2.1 1.2
v -0.7 2.1 -1.2
v 0.7 1.1 1.2
v 0.7 1.1 -1.2
v 0.7 1.2 -0.6
v 0.7 1.2 -1.1
v 0.7 1.3 1.1
v 0.7 1.3 0.6
v 0.7 1.3 -0.7
v 0.7 1.3 -0.8
v 0.7 1.3 -0.9
v 0.7 1.3 -1
v 0.7 1.4 1.1
v 0.7 1.4 0.6
v 0.7 1.4 -0.7
v 0.7 1.4 -0.8
v 0.7 1.4 -0.9
v 0.7 1.4 -1
v 0.7 1.5 0.9
v 0.7 1.5 0.8
v 0.7 1.5 0.7
v 0.7 1.5 0.6
v 0.7 1.5 -0.6
v 0.7 1.5 -1.1
v 0.7 1.6 0.9
v 0.7 1.6 0.8
v 0.7 1.7 1.1
v 0.7 1.7 0.8
v 0.7 1.8 1.1
v 0.7 1.8 0.8
v 0.7 1.9 1.1
v 0.7 1.9 0.8
v 0.7 2 1.1
v 0.7 2 0.8
v 0.7 2 0.7
v 0.7 2 0.6
v 0.7 2.1 1.2
v 0.7 2.1 -1.2
v -0.7 1.1 1.2
v -0.7 2.1 1.2
v -0.1 1.1 1.2
v -0.1 1.2 1.2
v -0.1 2 1.2
v -0.1 2.1 1.2
v 0.1 1.1 1.2
v 0.1 1.2 1.2
v 0.1 2 1.2
v 0.1 2.1 1.2
v 0.7 1.1 1.2
v 0.7 2.1 1.2
v -0.7 1.1 -1.2
v -0.7 2.1 -1.2
v -0.6 1.3 -1.2
v -0.6 1.4 -1.2
v -0.5 1.2 -1.2
v -0.5 1.3 -1.2
v -0.5 1.4 -1.2
v -0.5 1.5 -1.2
v -0.4 1.2 -1.2
v -0.4 1.3 -1.2
v -0.4 1.4 -1.2
v -0.4 1.5 -1.2
v -0.3 1.3 -1.2
v -0.3 1.4 -1.2
v -0.1 1.1 -1.2
v -0.1 1.2 -1.2
v -0.1 2 -1.2
v -0.1 2.1 -1.2
v 0.1 1.1 -1.2
v 0.1 1.2 -1.2
v 0.1 2 -1.2
v 0.1 2.1 -1.2
v 0.7 1.1 -1.2
v 0.7 2.1 -1.2
v -0.7 1.1 1.2
v -0.1 1.1 1.2
v 0.1 1.1 1.2
v 0.7 1.1 1.2
v -0.7 1.1 -1.2
v -0.1 1.1 -1.2
v 0.1 1.1 -1.2
v 0.7 1.1 -1.2
v -0.7 2.1 1.2
v -0.1 2.1 1.2
v 0.1 2.1 1.2
v 0.7 2.1 1.2
v -0.7 2.1 -1.2
v -0.1 2.1 -1.2
v 0.1 2.1 -1.2
v 0.7 2.1 -1.2

# faces
f 3/4/1 2/4/1 1/4/1
f 4/4/1 2/4/1 3/4/1
f 5/4/1 2/4/1 4/4/1
f 6/4/1 2/4/1 5/4/1
f 7/4/1 2/4/1 6/4/1
f 8/4/1 2/4/1 7/4/1
f 9/4/1 2/4/1 8/4/1
f 10/4/1 2/4/1 9/4/1
f 11/4/1 2/4/1 10/4/1
f 12/4/1 3/4/1 1/4/1
f 12/1/1 4/1/1 3/1/1
f 13/2/1 5/2/1 4/2/1
f 13/1/1 4/1/1 12/1/1
f 14/1/1 6/1/1 5/1/1
f 15/2/1 7/2/1 6/2/1
f 15/1/1 6/1/1 14/1/1
f 16/2/1 7/2/1 15/2/1
f 17/4/1 8/4/1 7/4/1
f 18/3/1 9/3/1 8/3/1
f 18/4/1 8/4/1 17/4/1
f 19/3/1 9/3/1 18/3/1
f 20/3/1 9/3/1 19/3/1
f 21/4/1 10/4/1 9/4/1
f 21/3/1 9/3/1 20/3/1
f 22/3/1 11/3/1 10/3/1
f 22/4/1 10/4/1 21/4/1
f 23/4/1 12/4/1 1/4/1
f 23/2/1 13/2/1 12/2/1
f 24/2/1 5/2/1 13/2/1
f 24/2/1 13/2/1 23/2/1
f 25/2/1 15/2/1 14/2/1
f 26/2/1 15/2/1 25/2/1
f 27/1/1 16/1/1 15/1/1
f 27/2/1 15/2/1 26/2/1
f 28/2/1 7/2/1 16/2/1
f 28/1/1 16/1/1 27/1/1
f 29/4/1 17/4/1 7/4/1
f 29/3/1 18/3/1 17/3/1
f 30/4/1 19/4/1 18/4/1
f 30/3/1 18/3/1 29/3/1
f 31/3/1 20/3/1 19/3/1
f 31/4/1 19/4/1 30/4/1
f 32/4/1 21/4/1 20/4/1
f 32/3/1 20/3/1 31/3/1
f 33/3/1 22/3/1 21/3/1
f 33/4/1 21/4/1 32/4/1
f 34/3/1 11/3/1 22/3/1
f 34/3/1 22/3/1 33/3/1
f 35/4/1 2/4/1 11/4/1
f 35/3/1 11/3/1 34/3/1
f 36/1/1 24/1/1 23/1/1
f 37/2/1 5/2/1 24/2/1
f 37/1/1 24/1/1 36/1/1
f 38/1/1 14/1/1 5/1/1
f 38/2/1 5/2/1 37/2/1
f 39/2/1 25/2/1 14/2/1
f 39/1/1 14/1/1 38/1/1
f 40/1/1 26/1/1 25/1/1
f 40/2/1 25/2/1 39/2/1
f 41/2/1 27/2/1 26/2/1
f 41/2/1 28/2/1 27/2/1
f 42/2/1 28/2/1 41/2/1
f 43/2/1 7/2/1 28/2/1
f 43/2/1 28/2/1 42/2/1
f 44/4/1 30/4/1 29/4/1
f 44/2/1 7/2/1 43/2/1
f 44/4/1 29/4/1 7/4/1
f 45/3/1 34/3/1 33/3/1
f 45/4/1 30/4/1 44/4/1
f 45/3/1 31/3/1 30/3/1
f 45/3/1 33/3/1 32/3/1
f 45/3/1 32/3/1 31/3/1
f 46/4/1 35/4/1 34/4/1
f 46/3/1 34/3/1 45/3/1
f 47/1/1 38/1/1 37/1/1
f 47/2/1 37/2/1 36/2/1
f 47/1/1 39/1/1 38/1/1
f 47/1/1 40/1/1 39/1/1
f 48/1/1 40/1/1 47/1/1
f 49/1/1 40/1/1 48/1/1
f 50/1/1 26/1/1 40/1/1
f 50/1/1 40/1/1 49/1/1
f 50/2/1 41/2/1 26/2/1
f 51/2/1 48/2/1 47/2/1
f 51/2/1 47/2/1 36/2/1
f 52/1/1 49/1/1 48/1/1
f 52/2/1 48/2/1 51/2/1
f 53/2/1 50/2/1 49/2/1
f 53/1/1 49/1/1 52/1/1
f 54/1/1 42/1/1 41/1/1
f 54/2/1 50/2/1 53/2/1
f 54/2/1 41/2/1 50/2/1
f 55/2/1 43/2/1 42/2/1
f 55/1/1 42/1/1 54/1/1
f 56/1/1 44/1/1 43/1/1
f 56/2/1 43/2/1 55/2/1
f 57/2/1 51/2/1 36/2/1
f 57/1/1 53/1/1 52/1/1
f 57/1/1 54/1/1 53/1/1
f 57/1/1 52/1/1 51/1/1
f 58/1/1 54/1/1 57/1/1
f 59/1/1 54/1/1 58/1/1
f 60/2/1 55/2/1 54/2/1
f 60/1/1 54/1/1 59/1/1
f 61/1/1 56/1/1 55/1/1
f 61/2/1 55/2/1 60/2/1
f 62/1/1 44/1/1 56/1/1
f 62/1/1 56/1/1 61/1/1
f 63/4/1 23/4/1 1/4/1
f 63/1/1 36/1/1 23/1/1
f 64/2/1 57/2/1 36/2/1
f 64/1/1 36/1/1 63/1/1
f 64/2/1 58/2/1 57/2/1
f 65/1/1 59/1/1 58/1/1
f 65/2/1 58/2/1 64/2/1
f 66/2/1 61/2/1 60/2/1
f 66/1/1 59/1/1 65/1/1
f 66/2/1 60/2/1 59/2/1
f 66/2/1 62/2/1 61/2/1
f 67/1/1 44/1/1 62/1/1
f 67/2/1 62/2/1 66/2/1
f 68/4/1 45/4/1 44/4/1
f 68/1/1 44/1/1 67/1/1
f 68/4/1 46/4/1 45/4/1
f 69/4/1 64/4/1 63/4/1
f 69/4/1 67/4/1 66/4/1
f 69/4/1 68/4/1 67/4/1
f 69/4/1 63/4/1 1/4/1
f 69/4/1 65/4/1 64/4/1
f 69/4/1 66/4/1 65/4/1
f 70/4/1 46/4/1 68/4/1
f 70/4/1 68/4/1 69/4/1
f 70/4/1 2/4/1 35/4/1
f 70/4/1 35/4/1 46/4/1
f 71/4/2 72/4/2 73/4/2
f 73/4/2 72/4/2 74/4/2
f 71/4/2 73/4/2 75/4/2
f 75/4/2 73/4/2 76/4/2
f 73/6/2 74/6/2 77/6/2
f 77/6/2 74/6/2 78/6/2
f 78/6/2 74/6/2 79/6/2
f 79/6/2 74/6/2 80/6/2
f 71/4/2 75/4/2 81/4/2
f 75/6/2 76/6/2 81/6/2
f 76/4/2 73/4/2 82/4/2
f 81/6/2 76/6/2 82/6/2
f 73/6/2 77/6/2 83/6/2
f 77/4/2 78/4/2 83/4/2
f 78/6/2 79/6/2 84/6/2
f 83/4/2 78/4/2 84/4/2
f 79/4/2 80/4/2 85/4/2
f 84/6/2 79/6/2 85/6/2
f 80/6/2 74/6/2 86/6/2
f 85/4/2 80/4/2 86/4/2
f 81/4/2 82/4/2 87/4/2
f 87/4/2 82/4/2 88/4/2
f 88/4/2 82/4/2 89/4/2
f 82/4/2 73/4/2 90/4/2
f 89/4/2 82/4/2 90/4/2
f 84/6/2 85/6/2 91/6/2
f 90/4/2 73/4/2 91/4/2
f 83/6/2 84/6/2 91/6/2
f 73/6/2 83/6/2 91/6/2
f 85/6/2 86/6/2 91/6/2
f 74/4/2 72/4/2 92/4/2
f 91/6/2 86/6/2 92/6/2
f 86/6/2 74/6/2 92/6/2
f 87/6/2 88/6/2 93/6/2
f 81/4/2 87/4/2 93/4/2
f 88/4/2 89/4/2 94/4/2
f 93/6/2 88/6/2 94/6/2
f 71/4/2 81/4/2 95/4/2
f 81/4/2 93/4/2 95/4/2
f 93/4/2 94/4/2 95/4/2
f 94/4/2 89/4/2 96/4/2
f 95/4/2 94/4/2 96/4/2
f 71/4/2 95/4/2 97/4/2
f 95/6/2 96/6/2 97/6/2
f 96/4/2 89/4/2 98/4/2
f 97/6/2 96/6/2 98/6/2
f 71/4/2 97/4/2 99/4/2
f 97/4/2 98/4/2 99/4/2
f 98/4/2 89/4/2 100/4/2
f 99/4/2 98/4/2 100/4/2
f 71/4/2 99/4/2 101/4/2
f 99/6/2 100/6/2 101/6/2
f 100/4/2 89/4/2 102/4/2
f 101/6/2 100/6/2 102/6/2
f 89/6/2 90/6/2 103/6/2
f 102/4/2 89/4/2 103/4/2
f 90/4/2 91/4/2 104/4/2
f 103/6/2 90/6/2 104/6/2
f 91/4/2 92/4/2 104/4/2
f 102/4/2 103/4/2 105/4/2
f 71/4/2 101/4/2 105/4/2
f 103/4/2 104/4/2 105/4/2
f 101/4/2 102/4/2 105/4/2
f 104/4/2 92/4/2 106/4/2
f 105/4/2 104/4/2 106/4/2
f 92/4/2 72/4/2 106/4/2
f 109/4/3 108/4/3 107/4/3
f 110/4/3 108/4/3 109/4/3
f 111/4/3 108/4/3 110/4/3
f 112/4/3 108/4/3 111/4/3
f 113/5/3 110/5/3 109/5/3
f 114/4/3 111/4/3 110/4/3
f 114/5/3 110/5/3 113/5/3
f 115/5/3 112/5/3 111/5/3
f 115/4/3 111/4/3 114/4/3
f 116/5/3 112/5/3 115/5/3
f 117/4/3 114/4/3 113/4/3
f 117/4/3 115/4/3 114/4/3
f 117/4/3 116/4/3 115/4/3
f 118/4/3 116/4/3 117/4/3
f 119/4/4 120/4/4 121/4/4
f 121/4/4 120/4/4 122/4/4
f 119/4/4 121/4/4 123/4/4
f 121/6/4 122/6/4 124/6/4
f 123/4/4 121/4/4 124/4/4
f 122/4/4 120/4/4 125/4/4
f 124/6/4 122/6/4 125/6/4
f 125/4/4 120/4/4 126/4/4
f 123/6/4 124/6/4 127/6/4
f 119/4/4 123/4/4 127/4/4
f 125/6/4 126/6/4 127/6/4
f 124/6/4 125/6/4 127/6/4
f 127/6/4 126/6/4 128/6/4
f 128/6/4 126/6/4 129/6/4
f 126/4/4 120/4/4 130/4/4
f 129/6/4 126/6/4 130/6/4
f 128/6/4 129/6/4 131/6/4
f 127/4/4 128/4/4 131/4/4
f 129/4/4 130/4/4 132/4/4
f 131/6/4 129/6/4 132/6/4
f 119/4/4 127/4/4 133/4/4
f 127/4/4 131/4/4 133/4/4
f 131/4/4 132/4/4 133/4/4
f 133/4/4 132/4/4 134/4/4
f 130/4/4 120/4/4 135/4/4
f 134/4/4 132/4/4 135/4/4
f 132/4/4 130/4/4 135/4/4
f 135/4/4 120/4/4 136/4/4
f 133/5/4 134/5/4 137/5/4
f 134/4/4 135/4/4 138/4/4
f 137/5/4 134/5/4 138/5/4
f 135/5/4 136/5/4 139/5/4
f 138/4/4 135/4/4 139/4/4
f 139/5/4 136/5/4 140/5/4
f 137/4/4 138/4/4 141/4/4
f 138/4/4 139/4/4 141/4/4
f 139/4/4 140/4/4 141/4/4
f 141/4/4 140/4/4 142/4/4
f 147/4/5 144/4/5 143/4/5
f 148/5/5 145/5/5 144/5/5
f 148/4/5 144/4/5 147/4/5
f 149/4/5 146/4/5 145/4/5
f 149/5/5 145/5/5 148/5/5
f 150/4/5 146/4/5 149/4/5
f 151/4/6 152/4/6 155/4/6
f 152/5/6 153/5/6 156/5/6
f 155/4/6 152/4/6 156/4/6
f 153/4/6 154/4/6 157/4/6
f 156/5/6 153/5/6 157/5/6
f 157/4/6 154/4/6 158/4/6
